<svg width="58" height="60" viewBox="0 0 58 60" fill="none" xmlns="http://www.w3.org/2000/svg">
<path opacity="0.3" d="M17.4803 53.2366C17.6206 53.0027 17.6674 52.7221 17.6674 52.3947C17.6674 51.3658 16.7787 50.4772 15.6563 50.3837C15.4225 48.5597 13.692 47.1566 11.6342 47.1566C9.9973 47.1566 8.59422 47.9985 7.93946 49.2612C7.89269 49.2612 7.89272 49.2612 7.84595 49.2612V25.8769H11.3536L27.0211 10.069L29.4999 7.54352L47.6461 25.8769H51.1538V48.1388C51.107 48.092 51.0134 48.0452 50.9667 47.9985C50.9199 47.9517 50.8732 47.9517 50.8264 47.9049C50.6393 47.7646 50.4055 47.6711 50.2184 47.5775C49.9845 47.484 49.704 47.3905 49.4233 47.2969C49.3298 47.2502 49.1895 47.2501 49.0959 47.2501C48.8621 47.2034 48.5815 47.2034 48.3009 47.2034C46.6172 47.2034 45.1674 48.0452 44.5126 49.308C44.3723 49.308 44.232 49.2612 44.0917 49.2612C42.408 49.2612 41.0517 50.4304 41.0517 51.8803C41.0517 52.3947 41.2388 52.8624 41.5194 53.2833H37.2635V49.4483H34.0364V34.9968H24.7762V49.4483H21.5492V53.2833H17.4803V53.2366ZM46.8043 42.6201V34.95H38.6198V42.6201H46.8043ZM32.9607 26.3913V19.8437H25.9922V26.3913H32.9607ZM20.38 42.6201V34.95H12.1955V42.6201H20.38Z" fill="#00856F"/>
<path d="M37.357 49.4016V53.2366H21.5959V49.4016H24.8698H34.1299H37.357Z" fill="#D3EEE4"/>
<path d="M7.9864 49.2144C8.64116 47.9984 10.0442 47.1098 11.6811 47.1098C13.7857 47.1098 15.5162 48.5129 15.7032 50.3369C16.8257 50.4772 17.7143 51.319 17.7143 52.3479C17.7143 52.6285 17.6675 52.9091 17.5272 53.1897H5.13346C4.85285 52.7688 4.66577 52.3011 4.66577 51.7867C4.66577 50.3368 5.97532 49.1676 7.61222 49.1676C7.70576 49.1676 7.79929 49.1676 7.89282 49.1676C7.89282 49.2144 7.93963 49.2144 7.9864 49.2144Z" fill="#00856F"/>
<path d="M44.5594 49.2144C45.2609 47.9984 46.664 47.1098 48.3477 47.1098C48.6283 47.1098 48.8621 47.1098 49.1428 47.1566C49.2363 47.1566 49.3766 47.2033 49.4701 47.2033C49.7507 47.2501 50.0313 47.3436 50.2652 47.4839C50.499 47.5775 50.6861 47.7178 50.8732 47.8113C50.9199 47.8581 50.9667 47.8581 51.0135 47.9049C51.0603 47.9516 51.1538 47.9984 51.2005 48.0452C51.9488 48.6064 52.4165 49.4015 52.5101 50.2901C53.6793 50.4304 54.5679 51.2722 54.5679 52.3011C54.5679 52.5818 54.4744 52.8624 54.3808 53.143H41.613C41.3323 52.7221 41.1453 52.2544 41.1453 51.7399C41.1453 50.2901 42.5016 49.1209 44.1852 49.1209C44.2788 49.2144 44.4191 49.2144 44.5594 49.2144Z" fill="#00856F"/>
<path d="M34.13 34.95H24.8699V49.4015H34.13V34.95Z" fill="#F5BA45"/>
<path d="M47.3189 10.0222V13.3428H43.25V10.0222V6.70166H47.3189V10.0222Z" fill="#F5BA45"/>
<path d="M27.0679 10.0223L11.4003 25.8769H7.89269H5.69458V10.0223H27.0679Z" fill="#F5BA45"/>
<path d="M53.352 10.0223V25.8769H51.2006H47.6929L32.0254 10.0223H43.2499V13.3428H47.3188V10.0223H53.352Z" fill="#F5BA45"/>
<path d="M26.5783 9.52997L10.9126 25.347L11.9095 26.3344L27.5752 10.5173L26.5783 9.52997Z" fill="#3D3D3D"/>
<path d="M7.89292 26.5783H5.74157C5.36742 26.5783 5.04004 26.2509 5.04004 25.8768V10.0221C5.04004 9.648 5.36742 9.32062 5.74157 9.32062H27.0681V10.7237H6.4431V25.1284H7.89292V26.5783Z" fill="#3D3D3D"/>
<path d="M53.352 26.5782H51.2006V25.1752H52.6505V10.7704H47.3188V9.36731H53.352C53.7262 9.36731 54.0536 9.69469 54.0536 10.0688V25.8767C54.0536 26.2508 53.7729 26.5782 53.352 26.5782Z" fill="#3D3D3D"/>
<path d="M47.1786 26.3444L31.5111 10.5365C31.324 10.3495 31.2305 10.0221 31.3708 9.78824C31.5111 9.5544 31.7449 9.36731 32.0255 9.36731H43.25V10.7704H33.7092L48.2075 25.409L47.1786 26.3444Z" fill="#3D3D3D"/>
<path d="M22.2976 53.2365H20.8945V49.4014C20.8945 49.0273 21.2219 48.6999 21.5961 48.6999H24.8231V50.103H22.2976V53.2365Z" fill="#3D3D3D"/>
<path d="M38.0587 53.2365H36.6556V50.103H34.1301V48.6999H37.3572C37.7313 48.6999 38.0587 49.0273 38.0587 49.4014V53.2365Z" fill="#3D3D3D"/>
<path d="M34.1299 50.1028H24.8697C24.4956 50.1028 24.1682 49.7755 24.1682 49.4013V34.9498C24.1682 34.5756 24.4956 34.2482 24.8697 34.2482H34.1299C34.5041 34.2482 34.8314 34.5756 34.8314 34.9498V49.4013C34.8314 49.7755 34.5041 50.1028 34.1299 50.1028ZM25.5713 48.6998H33.4284V35.6513H25.5713V48.6998Z" fill="#3D3D3D"/>
<path d="M20.3802 43.3214H12.1957C11.8215 43.3214 11.4941 42.994 11.4941 42.6198V34.9498C11.4941 34.5756 11.8215 34.2482 12.1957 34.2482H20.3802C20.7543 34.2482 21.0817 34.5756 21.0817 34.9498V42.6198C21.0817 42.994 20.8011 43.3214 20.3802 43.3214ZM12.8972 41.9183H19.6787V35.6513H12.8972V41.9183Z" fill="#3D3D3D"/>
<path d="M46.8045 43.3214H38.62C38.2458 43.3214 37.9185 42.994 37.9185 42.6198V34.9498C37.9185 34.5756 38.2458 34.2482 38.62 34.2482H46.8045C47.1787 34.2482 47.506 34.5756 47.506 34.9498V42.6198C47.506 42.994 47.1787 43.3214 46.8045 43.3214ZM39.3215 41.9183H46.103V35.6513H39.3215V41.9183Z" fill="#3D3D3D"/>
<path d="M32.9608 27.0927H25.9923C25.6182 27.0927 25.2908 26.7653 25.2908 26.3912V19.8436C25.2908 19.4694 25.6182 19.142 25.9923 19.142H32.9608C33.3349 19.142 33.6623 19.4694 33.6623 19.8436V26.3912C33.6623 26.7653 33.3817 27.0927 32.9608 27.0927ZM26.6938 25.6896H32.2593V20.5451H26.6938V25.6896Z" fill="#3D3D3D"/>
<path d="M47.3188 14.0442H43.2499C42.8757 14.0442 42.5483 13.7168 42.5483 13.3427V6.70154H43.9514V12.6411H46.6173V6.70154H48.0203V13.3427C48.0203 13.7636 47.6929 14.0442 47.3188 14.0442Z" fill="#3D3D3D"/>
<path d="M49.2832 6H41.3325V7.40306H49.2832V6Z" fill="#3D3D3D"/>
<path d="M4.5255 53.6106C4.15135 53.0493 3.91748 52.4413 3.91748 51.7866C3.91748 49.9626 5.55441 48.466 7.56546 48.466C7.70577 48.466 7.79927 48.466 7.93958 48.466C7.98635 48.466 8.03314 48.466 8.07991 48.466L7.84606 49.8691L7.93958 49.1675L7.84606 49.8691H7.75255C7.70578 49.8691 7.61223 49.8691 7.56546 49.8691C6.34948 49.8691 5.32054 50.7109 5.32054 51.7866C5.32054 52.114 5.41411 52.4881 5.64796 52.7687L4.5255 53.6106Z" fill="#3D3D3D"/>
<path d="M49.2832 47.9516C49.1896 47.9516 49.0961 47.9048 49.0493 47.9048L49.2832 46.5018C49.4235 46.5018 49.5638 46.5485 49.6573 46.5953L49.2832 47.9516Z" fill="#3D3D3D"/>
<path d="M50.4993 48.4659C50.359 48.3724 50.1719 48.2788 49.9849 48.1853L50.5461 46.8758C50.78 46.9693 51.0138 47.1096 51.2477 47.2499L50.4993 48.4659Z" fill="#3D3D3D"/>
<path d="M55.0357 53.517L53.7729 52.909C53.8664 52.7219 53.9132 52.5816 53.9132 52.3945C53.9132 51.7398 53.3052 51.1785 52.4634 51.085C52.136 51.0382 51.9021 50.8044 51.8554 50.477C51.7618 49.7755 51.3877 49.1207 50.7797 48.653C50.733 48.6063 50.6862 48.6063 50.6394 48.5595L51.3409 47.3435C51.4345 47.3903 51.528 47.4838 51.6215 47.5306C52.3698 48.0918 52.8843 48.8869 53.0714 49.7287C54.3341 50.0561 55.2228 51.1318 55.2228 52.3478C55.2695 52.7687 55.2228 53.1896 55.0357 53.517Z" fill="#3D3D3D"/>
<path d="M41.0518 53.6574C40.6309 53.0961 40.4438 52.4882 40.4438 51.8334C40.4438 50.0094 42.1275 48.5128 44.1853 48.5128H44.2321C45.261 47.0162 47.2253 46.1744 49.2831 46.5485C49.4234 46.5953 49.5638 46.5953 49.6573 46.642C49.9379 46.6888 50.2185 46.7824 50.4991 46.9227V26.5783H47.693C47.5059 26.5783 47.3188 26.4847 47.1785 26.3912L29.5467 8.57233L27.5824 10.5834L27.5357 10.6301L11.9149 26.3912C11.7746 26.5315 11.5875 26.5783 11.4005 26.5783H8.59434V47.4371C9.43618 46.7824 10.5118 46.4082 11.6811 46.4082C13.926 46.4082 15.8435 47.8113 16.3112 49.7288C17.5272 50.0562 18.4158 51.1318 18.4158 52.3478C18.4158 52.722 18.3222 53.1429 18.1352 53.4703L16.8724 52.8623C16.966 52.722 17.0127 52.5349 17.0127 52.3478C17.0127 51.6931 16.4047 51.1319 15.6564 51.0383C15.329 50.9915 15.0952 50.7577 15.0484 50.4303C14.8614 48.9337 13.4115 47.8113 11.6811 47.8113C10.3715 47.8113 9.15555 48.466 8.6411 49.5417C8.50079 49.8223 8.22018 49.9626 7.93957 49.9159C7.56542 49.9159 7.23804 49.5885 7.23804 49.2143V25.83C7.23804 25.4558 7.56542 25.1284 7.93957 25.1284H11.1666L26.6003 9.50771L26.6471 9.46092L29.0791 7.02894C29.3597 6.74833 29.8273 6.74833 30.0612 7.02894L47.9736 25.1284H51.2006C51.5748 25.1284 51.9022 25.4558 51.9022 25.83V48.0919C51.9022 48.3725 51.7619 48.6063 51.4813 48.7466C51.2474 48.8402 50.92 48.8402 50.7329 48.6531C50.6862 48.6063 50.6394 48.6064 50.5927 48.5596C50.5459 48.5596 50.5459 48.5128 50.4991 48.5128L50.4056 48.466C50.2653 48.3725 50.0782 48.2789 49.8911 48.1854C49.7041 48.0919 49.4702 47.9983 49.2364 47.9516C49.1428 47.9048 49.0493 47.9048 48.9558 47.9048C47.3656 47.6242 45.7755 48.3725 45.1207 49.5885C44.9804 49.8223 44.6998 49.9626 44.4192 49.9626C44.3256 49.9626 44.1853 49.9159 44.0918 49.9159C42.8291 49.9159 41.7534 50.7577 41.7534 51.8334C41.7534 52.1608 41.8937 52.5349 42.0807 52.8155L41.0518 53.6574Z" fill="#3D3D3D"/>
<path d="M57 52.5349H2V53.9379H57V52.5349Z" fill="#3D3D3D"/>
</svg>
